<svg width="24" height="24" viewBox="0 0 24 24" fill="none" xmlns="http://www.w3.org/2000/svg">
<path d="M18.618 7.462L6.403 2.085C6.158 1.977 5.882 1.973 5.633 2.069C5.385 2.168 5.186 2.36 5.081 2.606L2.081 9.606C1.863 10.113 2.099 10.701 2.606 10.919L9.563 13.9L8.323 17H4V14H2V18V22H4V19H8.323C9.146 19 9.875 18.506 10.179 17.742L11.401 14.688L14.82 16.153C15.326 16.37 15.911 16.138 16.131 15.635L19.131 8.778C19.352 8.272 19.122 7.685 18.618 7.462Z" fill="#FB5757"/>
<path d="M19.9293 16.3718L18.0721 15.6296L20.0703 10.6291L21.9275 11.3713L19.9293 16.3718Z" fill="#FB5757"/>
</svg>
