<svg width="53" height="14" viewBox="0 0 53 14" fill="none" xmlns="http://www.w3.org/2000/svg">
<path d="M0.990234 11V2.46875H3.39844C4.14062 2.46875 4.79688 2.63281 5.36719 2.96094C5.9375 3.28906 6.37695 3.75586 6.68555 4.36133C6.99805 4.9668 7.15625 5.66211 7.16016 6.44727V6.99219C7.16016 7.79688 7.00391 8.50195 6.69141 9.10742C6.38281 9.71289 5.93945 10.1777 5.36133 10.502C4.78711 10.8262 4.11719 10.9922 3.35156 11H0.990234ZM2.11523 3.39453V10.0801H3.29883C4.16602 10.0801 4.83984 9.81055 5.32031 9.27148C5.80469 8.73242 6.04688 7.96484 6.04688 6.96875V6.4707C6.04688 5.50195 5.81836 4.75 5.36133 4.21484C4.9082 3.67578 4.26367 3.40234 3.42773 3.39453H2.11523ZM9.87305 11H8.78906V4.66016H9.87305V11ZM8.70117 2.97852C8.70117 2.80273 8.75391 2.6543 8.85938 2.5332C8.96875 2.41211 9.12891 2.35156 9.33984 2.35156C9.55078 2.35156 9.71094 2.41211 9.82031 2.5332C9.92969 2.6543 9.98438 2.80273 9.98438 2.97852C9.98438 3.1543 9.92969 3.30078 9.82031 3.41797C9.71094 3.53516 9.55078 3.59375 9.33984 3.59375C9.12891 3.59375 8.96875 3.53516 8.85938 3.41797C8.75391 3.30078 8.70117 3.1543 8.70117 2.97852ZM15.5273 11C15.4648 10.875 15.4141 10.6523 15.375 10.332C14.8711 10.8555 14.2695 11.1172 13.5703 11.1172C12.9453 11.1172 12.4316 10.9414 12.0293 10.5898C11.6309 10.2344 11.4316 9.78516 11.4316 9.24219C11.4316 8.58203 11.6816 8.07031 12.1816 7.70703C12.6855 7.33984 13.3926 7.15625 14.3027 7.15625H15.3574V6.6582C15.3574 6.2793 15.2441 5.97852 15.0176 5.75586C14.791 5.5293 14.457 5.41602 14.0156 5.41602C13.6289 5.41602 13.3047 5.51367 13.043 5.70898C12.7812 5.9043 12.6504 6.14062 12.6504 6.41797H11.5605C11.5605 6.10156 11.6719 5.79688 11.8945 5.50391C12.1211 5.20703 12.4258 4.97266 12.8086 4.80078C13.1953 4.62891 13.6191 4.54297 14.0801 4.54297C14.8105 4.54297 15.3828 4.72656 15.7969 5.09375C16.2109 5.45703 16.4258 5.95898 16.4414 6.59961V9.51758C16.4414 10.0996 16.5156 10.5625 16.6641 10.9062V11H15.5273ZM13.7285 10.1738C14.0684 10.1738 14.3906 10.0859 14.6953 9.91016C15 9.73438 15.2207 9.50586 15.3574 9.22461V7.92383H14.5078C13.1797 7.92383 12.5156 8.3125 12.5156 9.08984C12.5156 9.42969 12.6289 9.69531 12.8555 9.88672C13.082 10.0781 13.373 10.1738 13.7285 10.1738ZM17.8828 7.77734C17.8828 6.78906 18.1113 6.00391 18.5684 5.42188C19.0254 4.83594 19.6309 4.54297 20.3848 4.54297C21.1582 4.54297 21.7617 4.81641 22.1953 5.36328L22.248 4.66016H23.2383V10.8477C23.2383 11.668 22.9941 12.3145 22.5059 12.7871C22.0215 13.2598 21.3691 13.4961 20.5488 13.4961C20.0918 13.4961 19.6445 13.3984 19.207 13.2031C18.7695 13.0078 18.4355 12.7402 18.2051 12.4004L18.7676 11.75C19.2324 12.3242 19.8008 12.6113 20.4727 12.6113C21 12.6113 21.4102 12.4629 21.7031 12.166C22 11.8691 22.1484 11.4512 22.1484 10.9121V10.3672C21.7148 10.8672 21.123 11.1172 20.373 11.1172C19.6309 11.1172 19.0293 10.8184 18.5684 10.2207C18.1113 9.62305 17.8828 8.80859 17.8828 7.77734ZM18.9727 7.90039C18.9727 8.61523 19.1191 9.17773 19.4121 9.58789C19.7051 9.99414 20.1152 10.1973 20.6426 10.1973C21.3262 10.1973 21.8281 9.88672 22.1484 9.26562V6.37109C21.8164 5.76562 21.3184 5.46289 20.6543 5.46289C20.127 5.46289 19.7148 5.66797 19.418 6.07812C19.1211 6.48828 18.9727 7.0957 18.9727 7.90039ZM25.9043 4.66016L25.9395 5.45703C26.4238 4.84766 27.0566 4.54297 27.8379 4.54297C29.1777 4.54297 29.8535 5.29883 29.8652 6.81055V11H28.7812V6.80469C28.7773 6.34766 28.6719 6.00977 28.4648 5.79102C28.2617 5.57227 27.9434 5.46289 27.5098 5.46289C27.1582 5.46289 26.8496 5.55664 26.584 5.74414C26.3184 5.93164 26.1113 6.17773 25.9629 6.48242V11H24.8789V4.66016H25.9043ZM31.2129 7.77148C31.2129 7.15039 31.334 6.5918 31.5762 6.0957C31.8223 5.59961 32.1621 5.2168 32.5957 4.94727C33.0332 4.67773 33.5312 4.54297 34.0898 4.54297C34.9531 4.54297 35.6504 4.8418 36.1816 5.43945C36.7168 6.03711 36.9844 6.83203 36.9844 7.82422V7.90039C36.9844 8.51758 36.8652 9.07227 36.627 9.56445C36.3926 10.0527 36.0547 10.4336 35.6133 10.707C35.1758 10.9805 34.6719 11.1172 34.1016 11.1172C33.2422 11.1172 32.5449 10.8184 32.0098 10.2207C31.4785 9.62305 31.2129 8.83203 31.2129 7.84766V7.77148ZM32.3027 7.90039C32.3027 8.60352 32.4648 9.16797 32.7891 9.59375C33.1172 10.0195 33.5547 10.2324 34.1016 10.2324C34.6523 10.2324 35.0898 10.0176 35.4141 9.58789C35.7383 9.1543 35.9004 8.54883 35.9004 7.77148C35.9004 7.07617 35.7344 6.51367 35.4023 6.08398C35.0742 5.65039 34.6367 5.43359 34.0898 5.43359C33.5547 5.43359 33.123 5.64648 32.7949 6.07227C32.4668 6.49805 32.3027 7.10742 32.3027 7.90039ZM42.0352 9.31836C42.0352 9.02539 41.9238 8.79883 41.7012 8.63867C41.4824 8.47461 41.0977 8.33398 40.5469 8.2168C40 8.09961 39.5645 7.95898 39.2402 7.79492C38.9199 7.63086 38.6816 7.43555 38.5254 7.20898C38.373 6.98242 38.2969 6.71289 38.2969 6.40039C38.2969 5.88086 38.5156 5.44141 38.9531 5.08203C39.3945 4.72266 39.957 4.54297 40.6406 4.54297C41.3594 4.54297 41.9414 4.72852 42.3867 5.09961C42.8359 5.4707 43.0605 5.94531 43.0605 6.52344H41.9707C41.9707 6.22656 41.8438 5.9707 41.5898 5.75586C41.3398 5.54102 41.0234 5.43359 40.6406 5.43359C40.2461 5.43359 39.9375 5.51953 39.7148 5.69141C39.4922 5.86328 39.3809 6.08789 39.3809 6.36523C39.3809 6.62695 39.4844 6.82422 39.6914 6.95703C39.8984 7.08984 40.2715 7.2168 40.8105 7.33789C41.3535 7.45898 41.793 7.60352 42.1289 7.77148C42.4648 7.93945 42.7129 8.14258 42.873 8.38086C43.0371 8.61523 43.1191 8.90234 43.1191 9.24219C43.1191 9.80859 42.8926 10.2637 42.4395 10.6074C41.9863 10.9473 41.3984 11.1172 40.6758 11.1172C40.168 11.1172 39.7188 11.0273 39.3281 10.8477C38.9375 10.668 38.6309 10.418 38.4082 10.0977C38.1895 9.77344 38.0801 9.42383 38.0801 9.04883H39.1641C39.1836 9.41211 39.3281 9.70117 39.5977 9.91602C39.8711 10.127 40.2305 10.2324 40.6758 10.2324C41.0859 10.2324 41.4141 10.1504 41.6602 9.98633C41.9102 9.81836 42.0352 9.5957 42.0352 9.31836ZM45.709 11H44.625V4.66016H45.709V11ZM44.5371 2.97852C44.5371 2.80273 44.5898 2.6543 44.6953 2.5332C44.8047 2.41211 44.9648 2.35156 45.1758 2.35156C45.3867 2.35156 45.5469 2.41211 45.6562 2.5332C45.7656 2.6543 45.8203 2.80273 45.8203 2.97852C45.8203 3.1543 45.7656 3.30078 45.6562 3.41797C45.5469 3.53516 45.3867 3.59375 45.1758 3.59375C44.9648 3.59375 44.8047 3.53516 44.6953 3.41797C44.5898 3.30078 44.5371 3.1543 44.5371 2.97852ZM51.1406 9.31836C51.1406 9.02539 51.0293 8.79883 50.8066 8.63867C50.5879 8.47461 50.2031 8.33398 49.6523 8.2168C49.1055 8.09961 48.6699 7.95898 48.3457 7.79492C48.0254 7.63086 47.7871 7.43555 47.6309 7.20898C47.4785 6.98242 47.4023 6.71289 47.4023 6.40039C47.4023 5.88086 47.6211 5.44141 48.0586 5.08203C48.5 4.72266 49.0625 4.54297 49.7461 4.54297C50.4648 4.54297 51.0469 4.72852 51.4922 5.09961C51.9414 5.4707 52.166 5.94531 52.166 6.52344H51.0762C51.0762 6.22656 50.9492 5.9707 50.6953 5.75586C50.4453 5.54102 50.1289 5.43359 49.7461 5.43359C49.3516 5.43359 49.043 5.51953 48.8203 5.69141C48.5977 5.86328 48.4863 6.08789 48.4863 6.36523C48.4863 6.62695 48.5898 6.82422 48.7969 6.95703C49.0039 7.08984 49.377 7.2168 49.916 7.33789C50.459 7.45898 50.8984 7.60352 51.2344 7.77148C51.5703 7.93945 51.8184 8.14258 51.9785 8.38086C52.1426 8.61523 52.2246 8.90234 52.2246 9.24219C52.2246 9.80859 51.998 10.2637 51.5449 10.6074C51.0918 10.9473 50.5039 11.1172 49.7812 11.1172C49.2734 11.1172 48.8242 11.0273 48.4336 10.8477C48.043 10.668 47.7363 10.418 47.5137 10.0977C47.2949 9.77344 47.1855 9.42383 47.1855 9.04883H48.2695C48.2891 9.41211 48.4336 9.70117 48.7031 9.91602C48.9766 10.127 49.3359 10.2324 49.7812 10.2324C50.1914 10.2324 50.5195 10.1504 50.7656 9.98633C51.0156 9.81836 51.1406 9.5957 51.1406 9.31836Z" fill="#4F4F4F"/>
</svg>
